<?xml version="1.0" encoding="UTF-8"?>
<svg xmlns="http://www.w3.org/2000/svg" viewBox="0 0 1080 1080">
  <defs>
    <style>
      .cls-1, .cls-2 {
        fill: #cc0d0d;
      }

      .cls-3 {
        fill: #fff;
      }

      .cls-3, .cls-4, .cls-2 {
        fill-rule: evenodd;
      }

      .cls-4 {
        fill: #f4b400;
      }
    </style>
  </defs>
  <g id="Objeto_13">
    <path class="cls-4" d="M1061.72,542.66c-.09.11-.18.22-.27.33-119.32,144.96-307.15,238.43-518.45,238.43S143.58,687.8,24.29,542.66h336.73c3.97,17.35,11.74,33.64,22.6,48.31,32.2,43.51,91.52,72.69,159.38,72.69s130.63-30.91,162.13-76.53c9.42-13.65,16.21-28.61,19.85-44.46h336.74Z"/>
  </g>
  <g id="Objeto_12">
    <path class="cls-2" d="M1061.85,543.17c-.32.33-1.44,1.13-1.44,1.13.09-.11-3.8.11-3.71,0h-152.11c-45.13,131.19-190.75,227.24-363.42,227.24s-318.29-96.05-363.42-227.24H25.64c-2.41-2.48-3.44-4.17-3.44-5.76,0-.56.13-1.1.37-1.66h0c.27-.63.67-1.28,1.2-1.98.98-1.17,2.15-2.58,3.21-3.86.27-.32.52-.63.77-.92l14.94-17.71,10.56-12.51s.03-.03.04-.05l22.68-26.89s.05-.06.07-.09l1.45-1.71h.01l301.19,3.74c26.81-62.71,89.06-106.65,161.59-106.65s137.32,45.77,163.2,110.55l299.77,3.75,53.08,48.31c3.96,3.69,5.25,4.55,6.78,5.92.09.08.16.15.22.2s.12.11.18.17c.01,0,.02.01.03.02h0s2.12,2.19-1.69,6Z"/>
  </g>
  <g id="Objeto_5">
    <path class="cls-4" d="M1063.54,537.18s-11.51-.15-14.36-.02h-150.19c-2.91.02-34.25,0-34.25,0h-149.29c-.48,0-.89.26-1.04.73-.02.09-.08.24-.1.33-20.75,76.15-90.41,132.14-173.14,132.14-94.24,0-179.81-74.98-179.81-133.78-5.24,0-17.42.58-18.46.58H90.89c-.52-.02-8.59,0-11.52,0h-45.96c-2.07-.02-7.32.17-10.08.28-.38.01-.67-.24-.76-.56h0c-.07-.24-.03-.51.15-.73.31-.37.66-.79,1.05-1.25.98-1.17,2.15-2.58,3.21-3.86.27-.32.52-.63.77-.92.98-1.18,1.78-2.16,2.12-2.59,3.74-4.71,8.34-9.95,12.82-15.12,3.79-4.35,7.5-8.64,10.56-12.51.01-.02.03-.03.04-.05,6.11-7.73,16.06-19.28,22.68-26.89.02-.03.05-.06.07-.09.19-.22.38-.43.56-.64l.9-1.07,8.43-10c1.59-1.88,3.08-3.69,4.62-5.61,1.64-1.99,3.11-3.48,4.72-5.47l42.03-49.82c1.56-1.87,3.04-3.69,4.64-5.56,3.24-3.78,6.17-7.54,9.35-11.06l18.61-21.84c3.12-3.86,6.19-7.15,9.39-11.03,0,0,44.38-54.25,46.32-54.25h121.07v.02l9.46,26.97s11.61-15.8,14.18-19.34c9.86-13.71,28.99-12.68,37.81,1.72,0,0,21.94,35.92,25.39,41.55.56-.41,1.12-.82,1.68-1.23,13.91-20.67,41.21-49.79,94.36-55.8,51.56-3.66,74.36,16.11,80.57,21.05.7.56,1.73.07,1.77-.84v-.15c.24-7.77,6.59-13.95,14.38-13.95,21.07.02,57.5.03,61.02,0l143.96-.49c62.7-2.25,89.69,23.31,94.22,27.32,9.06,7.99,35.33,38.26,23.16,72.66-1.64,4.66-6.56,15.8-10.32,18.35-.34,1.23-2.74,3.15-4.01,4.73-.33.41-.29,1.03.08,1.42,1.71,1.79,5.2,4.23,5.7,5.27.07.15.22.26.35.36,2.15,1.3,3.32,2.88,5.28,4.45l41,36.89c2.93,2.38,9.69,9.11,12.86,11.62,1.04.84,1.43,1.36,2.46,2.3l15.5,13.76c1.04.94,3.78,3.3,4.56,4.44.1.13.3.3.43.37,1.49.8,3.43,2.85,5.03,4.21l10.03,9.02c.97.84,1.43,1.49,2.46,2.31l12.54,11.25c1.12,1.16,8.64,8.25,10.52,10.02.09.08.16.15.22.2.09.09.15.14.18.17.02.02.03.03.03.03Z"/>
  </g>
  <g id="Objeto_4">
    <path class="cls-1" d="M1004.74,500.65l-26.34-24.21-.07-.06-.07-.06c-.55-.49-1.04-.86-1.39-1.13-.13-.1-.3-.23-.37-.29l-.18-.18-.21-.19-13.57-12.28-.21-.19-.23-.18s-.18-.18-.28-.29c-.34-.37-.86-.92-1.57-1.56l-4.54-4.02-.19-.16-.19-.15c-.27-.21-.35-.28-.35-.29-.09-.09-.18-.19-.32-.32-.16-.17-.35-.36-.59-.61l-.19-.19-.2-.18-22.88-20.66-.22-.2-.23-.18c-.19-.15-.35-.28-.51-.39-.08-.06-.14-.11-.21-.16-.04-.05-.1-.12-.19-.23l-.47-.58h0s-.56-.5-.56-.5l-12.64-11.26s-.03-.07,0-.09c1.97-1.46,4.04-3.28,7.69-6.86l.17-.17.16-.17,4.44-4.83.89-.89s0-.01.01-.02l.65-1.3v-.02c.11-.15.3-.43.47-.67,1.29-1.85,3.44-4.96,6.07-11.28,2.29-5.5,3.53-12.76,3.25-18.95-.8-17.7-8.95-29.51-15.01-36.86-5.42-6.58-14.54-14.28-21.67-18.32-6.67-3.78-9-4.76-12.22-6.12-1.64-.69-3.5-1.48-6.49-2.88l-.57-.27-.61-.19c-17.63-5.41-30.11-6.5-44.52-6.5-3.96,0-8.12.08-12.52.16-2.88.06-5.86.11-9.05.15l-51.67.58c-.64,0-1.25.01-1.82.01-.06,0-.12,0-.17,0-5.84-.17-12.26-.26-19.23-.26-5.4,0-9.73.06-11.82.08h-.71s-82.79-.09-82.79-.09h-.06s-.06,0-.06,0c-5.87.07-11.4,2.57-15.58,7.05-4.53,4.86-6.91,11.42-6.53,18.02.12,2.07.2,3.93.26,5.61-.02-.02-.03-.04-.05-.05-.31-.33-.65-.7-1.07-1.14-2.32-2.43-11.5-10.24-15.48-12.88-6.35-4.21-11.72-7.22-17.38-9.79l-.15-.07-.15-.06-1.12-.46c-5.43-2.23-12.19-5-18.71-6.41-9.64-2.09-10.79-2.24-16.91-2.81-1.49-.14-3.33-.31-5.78-.56-2.22-.23-4.66-.34-7.26-.34h0c-12.52,0-28.53,2.67-39.85,6.65-.76.27-1.54.53-2.33.8-2.52.86-5.12,1.74-7.57,2.82-7.94,3.52-10.05,4.75-17.28,9.42-.22.14-.59.36-.96.56-1.06.61-2.37,1.36-3.63,2.4l-6.92,5.61-.06.05-.06.05c-7.08,5.94-11.52,11.5-16,18.01l-.12.17-.11.17-4.67,7.49-.19.3-.16.31-.05.09-.05.11-.15.3-.12.31c-.45,1.12-1.12,2.46-1.83,3.88-.77,1.53-1.56,3.12-2.27,4.79-.7,1.64-1.34,3.81-1.97,5.91-.05.16-.1.34-.16.52l-34.29-58.98c-2.18-3.75-5.75-6.57-9.99-7.52-6.18-1.38-12.36,1.1-15.87,6.05-9.99,12.92-60.02,86.12-100.59,138.62-.01.01-.03.02-.05.02l-62.76.8-2.3.21c-.05,0-.08-.06-.05-.1,4.25-5.44,8.72-11.14,11.5-14.63l9.18-11.61c.46-.58.93-1.17,1.42-1.78,1.05-1.31,2.14-2.67,3.2-4.06,4.75-6.25,10.24-13.1,15.54-19.72,4.02-5.02,8.18-10.2,12-15.12l31.8-40.33c.38-.48,1.32-1.66,2.61-3.27,3.41-4.26,9.07-11.35,13.46-16.96,2.7-3.44,3.4-8.15,1.51-12.09-1.89-3.91-5.76-6.35-10.1-6.35-8.08,0-39.05-.02-52.26-.02-6,0-11.12,0-14.1.01-4.37.01-8.48,1.95-11.28,5.32l-46.53,56.02-.09.11-.09.11c-.39.5-.82,1-1.32,1.57-.61.7-1.3,1.49-2.01,2.42l-39.97,48c-.09.1-.18.2-.28.31-.53.59-1.2,1.33-1.77,2.08l-.18.23c-.56.74-.72.93-1.33,1.65l-.04.05-.04.05-18.41,22.05-.05.06-.05.06c-.33.41-.55.72-.73.98l-.17.21c-.57.69-1.02,1.23-1.5,1.79l-.03.04-.03.04-4.36,5.16-.1.11-.09.12c-.25.32-.43.57-.55.73h0c-.7.81-1.32,1.57-1.86,2.24-.57.7-1.06,1.3-1.52,1.82l-.11.12-.1.12-8.55,10.25c-.55.62-.91,1.08-1.17,1.42-.18.23-.24.31-.39.48-4.28,4.72-11.56,13.63-17.42,20.78-1.36,1.67-2.62,3.21-3.71,4.53l-6.93,8.21-2.54,3.37c-3.42,4.54-.34,11.06,5.34,11.3l4.06.17,162.62-.22h0c.44.07.9.11,1.4.13.3,0,.74.02,1.26.02.97.02,2.27.03,3.57.04,2.46.02,5.15.05,5.31.05h.09s56-.54,56-.54c8.71-.08,16.66-4.54,21.27-11.93,4.22-6.76,11.91-18.64,15.56-24.26.01-.02.03-.03.05-.03l75.46-.26c.06.04,2.26.06,2.31.1,3.22,7.19,20.38,41.72,20.38,41.72l-11.45,5.46c-5.95,2.45-21.57,10.12-21.57,10.12,0,0,24.71,94.67,140.86,94.67,5.4,0,10.74-.28,15.85-.83,27.74-2.99,54.15-17.64,69.6-30.36.33-.27.65-.53.97-.78.73-.58,1.55-1.24,2.43-2.02.47-.41.77-.65,1.14-.95.52-.41,1.17-.93,2.11-1.78,14.56-13.22,25.73-29.05,31.45-44.58.92-2.51,5.62-23.72,5.69-34.48,0-.03.03-.06.06-.06l91.15-.25v.02s8.38,0,8.38,0h2.18s.94,0,.94,0h4.59s77.29-.31,77.29-.31c0,0-3.66-16.8-4.29-22.29v-.08s-.03-.21-.03-.21l-.03-.2-7.59-46.85c0-.06.06-.1.11-.05l7.09,7.28c.77.8,1.59,1.55,2.38,2.27.63.58,1.29,1.19,1.66,1.58.91.97,1.66,1.78,2.32,2.5,2.44,2.64,3.91,4.23,7.69,7.76,1.25,1.17,2.64,2.71,4.12,4.35,2.18,2.43,4.65,5.17,7.72,7.91.68.61,2.01,2.11,3.19,3.43,2.02,2.27,4.3,4.84,6.66,6.9,1.9,1.66,3.35,3.26,5.03,5.1.65.72,1.33,1.46,2.05,2.23l.21.23.21.19c.25.24,2.55,2.39,5.34,5.02,4.02,3.78,13.02,12.83,13.02,12.83,0,0,12.52-.19,18.92-.19h.41s.78,0,.78,0c6.34-.03,12.69-.04,19.04-.05,14.41-.03,29.32-.05,43.97-.27h.07s.07,0,.07,0l1.69-.05,21.94-.66c.06,0,.08-.07.04-.11l-16.16-14.86Z"/>
  </g>
  <g id="Objeto_1">
    <path class="cls-3" d="M233.83,509.03l9.83-12.63c3.28-4.45,26.95-36.25,27.59-38.14l-58.48.74-17.46.41c-1.49.02-2.34-1.69-1.43-2.87,4.75-6.1,15.7-20.15,20.89-26.67l9.16-11.58c1.43-1.81,3.04-3.77,4.51-5.7,8.45-11.12,18.79-23.6,27.63-34.95l31.82-40.35c1.39-1.76,10.2-12.73,16.28-20.49,1.14-1.46.1-3.6-1.75-3.6-11.73-.01-56.78-.04-66.33-.01-1.7,0-3.3.76-4.38,2.07l-46.52,56.02c-1.13,1.46-2.29,2.62-3.4,4.08l-40.18,48.24c-.49.55-1.25,1.37-1.73,2-.73.95-.97,1.28-1.82,2.27l-18.41,22.05c-.32.39-.38.55-.73.98-.68.83-1.24,1.5-1.86,2.22l-4.36,5.16c-.35.44-.34.51-.74.97-1.36,1.56-2.42,2.98-3.56,4.26l-8.66,10.38c-.78.85-.91,1.18-1.7,2.05-5.14,5.67-15.31,18.26-20.88,25.03l-6.99,8.28c.64.39,163.68-.22,163.68-.22Z"/>
  </g>
  <g id="Objeto_2">
    <path class="cls-3" d="M863.91,359.65c1.8,3,2.75,4.99,2.18,9.72-.88,7.3-2.47,10.14-8.26,14.75l-4.12,2.11-6.76.91-20.07.2c-.93-1.83-6.53-37.95-6.31-39.11,9.81.23,21.93-1.29,30.48,1.54,3.23,1.07,8.81,3.05,12.85,9.87ZM755.03,338.88c.14,2.41.52,4.44.84,6.9,1.2,9.39,2.14,18.97,3.32,28.22.95,7.49,6.62,49.86,6.68,56.21l4.36,33.99c.82,7.33,1.85,14.92,2.85,22.21.95,6.97,2.04,14.07,2.56,21.24,3.7,0,.73,0,7.72,0h61.93s-1.41-12.2-1.41-12.2l-12.19-75.2,27.12,27.85c1.27,1.31,3.02,2.76,4.17,3.99,4.25,4.54,5.05,5.61,9.57,9.81,3.53,3.29,6.9,7.86,11.69,12.12,2.4,2.14,6.31,7.22,9.79,10.28,3.12,2.73,5.22,5.29,7.71,7.94,0,0,14.82,13.91,16.28,15.35,5.13.18,10.82-.09,16.01-.11,20.94-.09,41.97,0,62.92-.32l1.69-.05c-.94-1.85-2.81-2.28-3.88-3.82-.94-.93-1.29-1.17-2.18-1.91l-20.27-18.49c-.8-.71-1.47-1.09-2.23-1.87l-13.57-12.28c-.97-.77-1.33-1.37-2.23-2.17l-4.52-4c-1.02-.81-1.06-.91-2.1-1.97l-22.88-20.66c-1.02-.81-1.34-.97-2.35-2.22l-13.06-11.64c-2.69-2.35-5.16-5.09-8.09-7.16l1.11-1.17c7.67-5.24,7.36-4.12,14.78-11.39l4.57-4.97c.84-1.79,3.03-3.61,6.28-11.41,1.75-4.2,2.8-10.16,2.57-15.08-.6-13.19-5.81-22.86-12.97-31.54-4.65-5.63-12.98-12.71-19.17-16.22-9.63-5.45-9.18-4.51-18.1-8.69-24.47-7.51-37.62-6.11-63.33-5.78l-51.69.58c-8.62.08-9.7-.08-13.61-.08.14,1.46,2.4,19.09,3.3,25.69Z"/>
  </g>
  <g id="Objeto_3">
    <path class="cls-3" d="M414.12,431.57c3.01,6.37-1.62,13.7-8.66,13.73-19.13.07-49.61.17-49.61.17-6.96.02-11.26-7.6-7.63-13.54l34.73-61.01,31.17,60.66ZM300.32,508.73c5.59-.05,10.76-2.95,13.72-7.69,5.92-9.47,18.31-28.5,18.31-28.5,0,0,60.72-.21,80.38-.28,3.61-.01,6.88,2.09,8.35,5.39,4.74,10.59,13.62,28.22,15.69,31.58.21.35.59.56,1,.56l31.14.02c.98-.45,14.42-.74,16.17-.9,5.21-.49,11.69-.15,17.03-.19l-9.3-17c-3.22-6.63-7.55-13.39-11-20.01-3.5-6.72-7.74-13.2-11.01-19.96l-9.38-17.11,5.92,5.24c1.85,1.21,4.81,3.15,6.66,4.36l52.56,24.51c.65.66,17.99,8.62,20.31,9.69,7.83,3.58,26.89,15.21,28.48,16.75,8.36,8.11,14.07,16.09,12.56,28.86-.14,1.22-4.1,12.17-5.53,14.18-2.8,3.95-4.33,5.25-7.69,8.3-6.77,6.12-13.33,7.8-21.26,10.38-4.84.48-7.66,1.22-12.93.95-4.28-.22-7.61-.99-11.49-2.04-3.92-1.06-16.85-6.94-18.29-9.32-1.38-.24-3.27-1.91-4.5-2.93-.95-.78-1.31-1.03-2.09-1.67-9.45-7.71-15.65-18.43-22.81-26.92l-31.67,12.71-36.03,14.86,6.86,13.61h0s7.38,12.89,7.38,12.89c1.04.58,3.89,5.24,4.94,6.43,3.68,4.18,7.14,8.11,11.39,11.74,2.21,1.89,2.89,3.15,6.29,5.62,5.73,4.16,7.26,5.7,13.65,9.49,2.53,1.5,4.76,2.91,7.25,4.31,2.59,1.46,5.46,2.55,8.07,3.84,21.38,10.52,51.62,16,78.7,13.08,25.42-2.74,50.05-16.19,64.85-28.36,1.06-.87,2.07-1.64,3.17-2.61,1.38-1.21,1.81-1.41,3.15-2.63,12.22-11.09,23.3-25.4,29.05-41.03.61-1.65,5.48-23.92,5.12-32.51-.09-2.09-.56-6.06-.29-7.9l103.79-.29-.34-4.42-4.76-40.46c-.76,0-44.89.16-44.89.16l-12.96-.31s-1.99-27.36-2.38-36.95c0,0,55.76-.24,55.76-.24l-.14-.74s0,0,0,0c0,0-4.36-39.34-4.67-40.91l-28.17.24s-13.48.24-21.54.37c-3.28.05-6-2.51-6.15-5.79l-.79-17.94c-.45-5.33,3.73-9.92,9.08-9.96l43.84-.32c-.05-1.44-1.52-14.44-2.72-24.81-.44-3.79-1.27-12.79-1.27-12.79,0,0-9.72-.14-13.36-.09l-82.85-.1c-7.81.09-13.68,7.76-13.23,15.55,2.08,36.1,7.34,128.35,7.43,132.85l-12.33-11.41c-.53-.48-.29-.19-.75-.74-3.45-2.23-7.39-5.44-11.18-7.73-1.96-1.19-92.51-40.54-92.51-40.54h-.01c-7.22-1.96-16.78-11.56-17.52-20.46-.89-10.82,5.41-20.8,13.95-23.38,12.16-3.67,23.49-.89,34.2,5.12,6.91,3.88,15.76,12.39,17.59,20.23l58.77-25.37c-.8-1.97-11.48-14.8-11.5-14.82h0c-.94-.89-1.41-1.47-2.5-2.61-1.91-2-10.66-9.42-13.93-11.59-4.89-3.24-10.28-7.06-16.12-9.09-5.45-2.23-12.16-5.07-18.33-6.41-12.04-2.61-10-2.02-21.7-3.22-12.59-1.29-31.74,1.82-43.2,5.85-3.03,1.06-6.43,2.12-9.23,3.36-7.59,3.37-9.23,4.35-16.04,8.75-1.18.76-2.72,1.49-3.77,2.36l-6.95,5.64c-5.91,4.96-9.89,9.7-14.37,16.22l-4.67,7.49c-1.12,2.79-2.9,5.86-4.16,8.83-1.03,2.45-2.39,8.04-3.19,9.61-1.18,5.73-1.66,9.48-1.66,13.98,0,1.9-2.52,2.56-3.44.89l-45.84-77.29c-1.67-2.82-5.7-2.98-7.59-.31,0,0-138.34,191.05-140.64,194.17-.04.06,0,.13.07.13l56-.54Z"/>
  </g>
  <g id="Objeto_6">
    <path class="cls-3" d="M361.76,706.13c-1.55,2.9-.29,6.5,2.73,7.8,7.06,3.02,14.1,6.16,21.17,9.21,4.61,1.99,8.67,3.95,13.32,5.85,1.8.74,6.28,2.81,9.71,4.27,2.09.89,4.49.02,5.58-1.97.84-1.53,1.85-3.24,2.69-4.79,1.07-1.96.21-4.41-1.83-5.3l-32.32-14.11c-1.02-.45-1.57-1.68-1.22-2.73v-.02c2.31-4.77,4.96-9.15,7.48-13.9,2.51-4.72,4.84-8.99,7.38-13.71l11.06-20.58c.42-.79.92-1.65,1.42-2.54,1.34-2.39.4-5.43-2.08-6.62-2.41-1.16-5.21-2.49-6.54-3.05-2.39-1.01-5.14-.02-6.36,2.27-1,1.87-2.17,3.85-2.79,5.02l-29.39,54.89Z"/>
  </g>
  <g id="Objeto_7">
    <path class="cls-3" d="M550.13,681.11l.79,9.39,25.16-1.88,7.37,64.24,17.4-1.2c-.5-10.18-2.52-21.82-3.57-32.18-.46-4.57-3.97-30-3.35-32.24l25.03-2.01c-.4-3.76-.7-6.52-.91-8.54-.33-3.06-3.02-5.29-6.09-5.06l-57.44,4.39h-.03c-2.62.18-4.59,2.48-4.37,5.1Z"/>
  </g>
  <g id="Objeto_8">
    <path class="cls-3" d="M325.03,674.99c-7.07-6.09-22.49-17.93-28.75-23.46-1.24-1.1-1.27-3.02-.07-4.16,3.08-2.89,8.04-8.06,9.5-9.53.64-.65,1.23-1.31,1.82-1.92,1.09-1.14,2.86-1.3,4.11-.34,2.16,1.65,4.95,4.17,5.88,5.14,0,0,0,0,0,0l10.97,9.08c1.27,1.05,6.93,5.45,10.09,7.9,1.27.98,3.06.88,4.22-.23.89-.86,1.75-1.74,2.64-2.61.03-.03.05-.05.08-.08.8-.89,2.14-2.6,3.11-3.84.65-.84.51-2.03-.3-2.71l-27.25-22.6c-.96-.79-1.02-2.24-.14-3.12l9.16-9.13c.95-.95,2.46-1.04,3.5-.19,1.22,1,2.45,2.12,3.59,3.07,1.77,1.48,3.84,2.34,5.16,4.08.14.18.29.34.48.45,2.23,1.29,15.16,12.23,20.02,16.37,1.31,1.11,3.25,1.08,4.5-.1,1.05-.99,2.09-2.16,2.62-2.73.94-.99,1.7-1.7,2.52-2.54.04-.05.11-.12.19-.2,1.2-1.32,1.09-3.37-.27-4.53-6.69-5.73-25.16-21.1-32.03-26.15-1-.74-3.23-2.53-5.52-4.35-3.49-2.78-8.51-2.49-11.65.68l-37.17,37.53c-2.42,2.52-4.69,4.74-7.05,7.07-1.24,1.23-2.49,2.55-3.56,3.67h0c-1.91,2.01-1.71,5.22.43,6.97,2.78,2.27,6.25,4.94,7.86,6.29,3.65,3.07,23.82,19.99,32.12,26.52,1.85,1.46,4.51,1.3,6.15-.39,1.07-1.1,2.24-2.36,3.33-3.48,1.77-1.82,1.64-4.76-.29-6.42Z"/>
  </g>
  <g id="Objeto_9">
    <path class="cls-3" d="M520.04,739.33l-38.91-3.3c-1.44.06-2.91-.11-4.39-.27-2.05-.21-3.53-2.06-3.3-4.11l1.39-11.97c.25-2.12,2.13-3.66,4.26-3.48l16.69,1.4,20.21,1.83,1.71.06.49-1.43c.2-3.98,1.53-9.04,1.2-12.8l-34.78-2.83-2.36-.19c-2.87-.23-4.98-2.8-4.64-5.67l.84-7.04c.25-2.1,2.12-3.63,4.23-3.45l18.59,1.59,19.47,1.54c2.24.18,4.23-1.42,4.54-3.64.26-1.89.57-3.87.77-5.74.25-2.35-1.46-4.43-3.81-4.63l-51.22-5.09c-3.96-.39-7.53,2.39-8.1,6.33-.67,4.61-1.41,9.81-1.81,13.04l-6.28,51.79c-.46,3.77,2.29,7.17,6.07,7.51l57.84,5.23c.17-3.96,1.81-11.34,1.29-14.72Z"/>
  </g>
  <g id="Objeto_10">
    <path class="cls-3" d="M758.45,606.2c8.04.4,13.87,4.72,18.37,8.71,1.49,1.32,6.25,7.78,7.05,9.04,12.37,19.37-4.18,33.69-19.09,32.86-8.11-.45-14.3-4.77-18.44-9.14-2.42-2.55-4.37-4.31-6.03-6.92-.84-1.32-1.62-2.21-2.53-3.84-4.75-8.54-4.01-17.25,2.73-23.66,3.69-3.51,9.85-7.46,17.94-7.06h0ZM759.1,591.06c-7.04-.02-11.55.65-17.16,3.02-22.1,9.34-34.24,30.68-18.46,53.15,9.18,13.07,23.43,25.32,41.43,25.79,8.85.23,16.81-2.69,23.69-6.96l3.21-2.1c4.12-2.57,10.32-9.28,12.75-14.65,12.71-28.03-21.06-58.19-45.47-58.25Z"/>
  </g>
  <g id="Objeto_11">
    <path class="cls-3" d="M655.98,667.73c1.47-.91,15.51-5.76,18.19-6.71,6.95-2.47,14.4-4.37,17.65,2.97,1.63,3.67.81,7.3-1.58,9.67-2.38,2.36-13.31,6.29-17.15,7.7-3.04,1.12-6.17,2.79-9.08,3.28l-8.03-16.91h0ZM681.45,722.14l-11.53-24.65c12.07-3.65,12.39-5.99,26.08,2.34,2.34,1.43,13.04,7.9,15.25,9.15,2.7,1.53,5.27,3.35,7.94,4.84,2.07,1.16,5.22-.67,8.76-1.99.93-.34,3.78-1.42,6.43-2.42,2.27-.86,2.62-3.92.6-5.26-5.05-3.35-12.55-8.09-14.43-9.23-7.36-4.46-13.19-8.7-23.02-9.38,1.54-1.29,2.56-2.19,3.7-3.46,4.15-4.62,6.28-10.75,5.84-16.94-.4-5.6-2.11-9.29-5.56-13.42-2.63-3.15-9.55-7.21-15.08-7.17-10.93-.68-27.92,6.48-39.31,10.66-1.43.52-3.09,1.08-4.81,1.66-4.78,1.62-7.1,7.04-4.96,11.62l28.91,61.92c.84,1.8,2.88,2.69,4.76,2.08,2.85-.92,6.85-2.34,9.66-3.43,1.81-.7,2.65-2.78,1.85-4.55l-1.07-2.37Z"/>
  </g>
</svg>